<svg width="13" height="13" viewBox="0 0 13 13" fill="none" xmlns="http://www.w3.org/2000/svg">
<g id="Frame" clip-path="url(#clip0_9_88)">
<path id="Vector" d="M6.5 0.5C3.194 0.5 0.5 3.194 0.5 6.5C0.5 9.806 3.194 12.5 6.5 12.5C9.806 12.5 12.5 9.806 12.5 6.5C12.5 3.194 9.806 0.5 6.5 0.5ZM6.5 11.57C3.704 11.57 1.43 9.296 1.43 6.5C1.43 3.704 3.704 1.43 6.5 1.43C9.296 1.43 11.57 3.704 11.57 6.5C11.57 9.296 9.296 11.57 6.5 11.57Z" fill="#040000"/>
<path id="Vector_2" d="M8.054 4.94598C8.234 5.12598 8.528 5.12598 8.708 4.94598C8.888 4.76598 8.888 4.47198 8.708 4.29198C7.49 3.07398 5.504 3.07398 4.286 4.29198C3.068 5.50998 3.068 7.49598 4.286 8.71398C4.898 9.32598 5.696 9.62598 6.5 9.62598C7.304 9.62598 8.102 9.31998 8.714 8.71398C8.894 8.53398 8.894 8.23998 8.714 8.05998C8.534 7.87998 8.24 7.87998 8.06 8.05998C7.202 8.91798 5.804 8.91798 4.946 8.05998C4.088 7.20198 4.088 5.80398 4.946 4.94598C5.804 4.08798 7.196 4.08798 8.054 4.94598Z" fill="#040000"/>
</g>
<defs>
<clipPath id="clip0_9_88">
<rect width="12" height="12" fill="white" transform="translate(0.5 0.5)"/>
</clipPath>
</defs>
</svg>
