<svg width="23" height="22" viewBox="0 0 23 22" fill="none" xmlns="http://www.w3.org/2000/svg">
<g id="email_icon">
<path id="Vector" d="M17.9167 3.66669H5.08337C4.35403 3.66669 3.65456 3.95642 3.13883 4.47214C2.62311 4.98787 2.33337 5.68734 2.33337 6.41669V15.5834C2.33337 16.3127 2.62311 17.0122 3.13883 17.5279C3.65456 18.0436 4.35403 18.3334 5.08337 18.3334H17.9167C18.6461 18.3334 19.3455 18.0436 19.8613 17.5279C20.377 17.0122 20.6667 16.3127 20.6667 15.5834V6.41669C20.6667 5.68734 20.377 4.98787 19.8613 4.47214C19.3455 3.95642 18.6461 3.66669 17.9167 3.66669ZM17.9167 5.50002L11.9584 9.59752C11.819 9.67797 11.6609 9.72033 11.5 9.72033C11.3391 9.72033 11.1811 9.67797 11.0417 9.59752L5.08337 5.50002H17.9167Z" fill="black"/>
</g>
</svg>
