<svg width="23" height="22" viewBox="0 0 23 22" fill="none" xmlns="http://www.w3.org/2000/svg">
<g id="ins_icon" clip-path="url(#clip0_18_43)">
<path id="Vector" d="M0.5 11C0.5 13.9174 1.65893 16.7153 3.72183 18.7782C5.78473 20.8411 8.58262 22 11.5 22C14.4174 22 17.2153 20.8411 19.2782 18.7782C21.3411 16.7153 22.5 13.9174 22.5 11C22.5 8.08262 21.3411 5.28473 19.2782 3.22183C17.2153 1.15893 14.4174 0 11.5 0C8.58262 0 5.78473 1.15893 3.72183 3.22183C1.65893 5.28473 0.5 8.08262 0.5 11Z" fill="#080405"/>
<path id="Vector_2" d="M11.5 7.69997C9.72303 7.69997 8.19995 9.13844 8.19995 11C8.19995 12.7769 9.63841 14.3 11.5 14.3C13.2769 14.3 14.8 12.8615 14.8 11C14.8 9.22305 13.2769 7.69997 11.5 7.69997ZM11.5 13.1154C10.3153 13.1154 9.38457 12.1846 9.38457 11C9.38457 9.81536 10.3153 8.88459 11.5 8.88459C12.6846 8.88459 13.6153 9.81536 13.6153 11C13.6153 12.1846 12.6846 13.1154 11.5 13.1154ZM14.8846 6.85382C14.4615 6.85382 14.123 7.19228 14.123 7.61536C14.123 8.03844 14.4615 8.3769 14.8846 8.3769C15.3076 8.3769 15.6461 8.03844 15.6461 7.61536C15.6461 7.19228 15.3076 6.85382 14.8846 6.85382Z" fill="white"/>
<path id="Vector_3" d="M14.4615 4.65385H14.123C13.1076 4.56924 9.89225 4.56924 8.87687 4.65385C6.93072 4.56924 5.23841 6.09232 5.15379 8.03847V8.37693C5.06918 9.39232 5.06918 12.6077 5.15379 13.6231C5.06918 15.5692 6.59225 17.2615 8.53841 17.3462H8.87687C9.89225 17.4308 13.1076 17.4308 14.123 17.3462C16.0692 17.4308 17.7615 15.9077 17.8461 13.9615V13.6231V8.37693C17.9307 6.43078 16.4076 4.73847 14.4615 4.65385ZM16.4923 14.7231C16.2384 15.3154 15.8153 15.7385 15.3076 15.9077C12.8538 16.2462 10.3153 16.2462 7.77687 15.9077C7.18456 15.6539 6.76149 15.2308 6.59226 14.7231C6.33841 13.4539 6.25379 12.1846 6.33841 11C6.25379 9.73078 6.33841 8.46155 6.59226 7.27693C6.8461 6.68462 7.26918 6.26155 7.77687 6.09232C10.2307 5.75385 12.7692 5.75385 15.3076 6.09232C15.8999 6.34616 16.323 6.76924 16.4923 7.27693C16.7461 8.54616 16.8307 9.81539 16.7461 11C16.8307 12.2692 16.7461 13.5385 16.4923 14.7231Z" fill="white"/>
</g>
<defs>
<clipPath id="clip0_18_43">
<rect width="22" height="22" fill="white" transform="translate(0.5)"/>
</clipPath>
</defs>
</svg>
