<svg width="23" height="22" viewBox="0 0 23 22" fill="none" xmlns="http://www.w3.org/2000/svg">
<g id="linkedin_icon">
<path id="Vector" d="M19.2641 1.83332H3.73581C3.56125 1.83089 3.38793 1.86288 3.22574 1.92745C3.06355 1.99201 2.91567 2.0879 2.79054 2.20962C2.66541 2.33135 2.56548 2.47653 2.49646 2.63688C2.42745 2.79723 2.3907 2.9696 2.38831 3.14415V18.8558C2.3907 19.0304 2.42745 19.2027 2.49646 19.3631C2.56548 19.5234 2.66541 19.6686 2.79054 19.7904C2.91567 19.9121 3.06355 20.008 3.22574 20.0725C3.38793 20.1371 3.56125 20.1691 3.73581 20.1667H19.2641C19.4387 20.1691 19.612 20.1371 19.7742 20.0725C19.9364 20.008 20.0843 19.9121 20.2094 19.7904C20.3345 19.6686 20.4345 19.5234 20.5035 19.3631C20.5725 19.2027 20.6092 19.0304 20.6116 18.8558V3.14415C20.6092 2.9696 20.5725 2.79723 20.5035 2.63688C20.4345 2.47653 20.3345 2.33135 20.2094 2.20962C20.0843 2.0879 19.9364 1.99201 19.7742 1.92745C19.612 1.86288 19.4387 1.83089 19.2641 1.83332ZM7.91581 17.1783H5.16581V8.92832H7.91581V17.1783ZM6.54081 7.77332C6.16155 7.77332 5.79782 7.62266 5.52964 7.35448C5.26147 7.08631 5.11081 6.72258 5.11081 6.34332C5.11081 5.96406 5.26147 5.60033 5.52964 5.33216C5.79782 5.06398 6.16155 4.91332 6.54081 4.91332C6.74219 4.89048 6.94613 4.91044 7.13927 4.97188C7.33241 5.03332 7.5104 5.13487 7.66157 5.26987C7.81275 5.40487 7.9337 5.57027 8.01652 5.75526C8.09934 5.94025 8.14215 6.14064 8.14215 6.34332C8.14215 6.546 8.09934 6.74639 8.01652 6.93138C7.9337 7.11636 7.81275 7.28177 7.66157 7.41677C7.5104 7.55177 7.33241 7.65332 7.13927 7.71476C6.94613 7.7762 6.74219 7.79616 6.54081 7.77332ZM17.8341 17.1783H15.0841V12.7508C15.0841 11.6417 14.69 10.9175 13.6908 10.9175C13.3816 10.9198 13.0805 11.0167 12.8281 11.1954C12.5757 11.374 12.3841 11.6258 12.2791 11.9167C12.2074 12.1321 12.1763 12.359 12.1875 12.5858V17.1692H9.43747V8.91915H12.1875V10.0833C12.4373 9.64983 12.8006 9.29271 13.2384 9.05042C13.6761 8.80813 14.1717 8.68985 14.6716 8.70832C16.505 8.70832 17.8341 9.89082 17.8341 12.43V17.1783Z" fill="black"/>
</g>
</svg>
