<svg width="23" height="22" viewBox="0 0 23 22" fill="none" xmlns="http://www.w3.org/2000/svg">
<g id="scholar_icon" clip-path="url(#clip0_18_40)">
<path id="Vector" d="M17.2965 12.8262C17.2965 12.8262 17.2965 12.8305 17.3008 12.8305C17.6961 13.6641 17.9195 14.5965 17.9195 15.5805C17.9152 19.1254 15.0449 22 11.5 22C7.95508 22 5.08477 19.1254 5.08477 15.5848C5.08477 14.6008 5.3082 13.6684 5.70352 12.8348C5.77656 12.6801 5.8582 12.5254 5.94414 12.375C6.1332 12.0484 6.34805 11.7434 6.58867 11.4598C7.76602 10.059 9.53203 9.16953 11.5043 9.16953C12.948 9.16953 14.2801 9.64648 15.3543 10.4543C15.7453 10.7508 16.102 11.0859 16.4199 11.4641C16.6605 11.7477 16.8754 12.057 17.0645 12.3793C17.1504 12.5254 17.2277 12.6801 17.3008 12.8305L17.2965 12.8262ZM18.4309 12.0184C17.1375 9.50898 14.5207 7.79023 11.5 7.79023C8.4793 7.79023 5.8625 9.50898 4.56914 12.0184L0.5 8.70977L11.5 0L22.5 8.70977L18.4309 12.0227V12.0184Z" fill="black"/>
</g>
<defs>
<clipPath id="clip0_18_40">
<rect width="22" height="22" fill="white" transform="translate(0.5)"/>
</clipPath>
</defs>
</svg>
